M48
;GenerationSoftware,Autodesk,EAGLE,9.6.2*%
;CreationDate,2024-03-07T18:54:23Z*%
FMAT,2
ICI,OFF
METRIC,TZ,000.000
T8C0.350
T7C0.800
T6C0.813
T5C1.000
T4C1.016
T3C1.118
T2C1.397
T1C3.302
%
G90
M71
T1
X40132Y75184
T2
X38862Y85598
X32512Y85598
T3
X25146Y77724
X25146Y75184
X25146Y72644
T4
X32766Y66548
X35306Y66548
X37846Y66548
X40386Y66548
X27686Y66548
X2794Y26416
X2794Y28956
X2794Y31496
X5588Y26416
X5588Y28956
X5588Y31496
X8382Y26416
X8382Y28956
X8382Y31496
X11176Y26416
X11176Y28956
X11176Y31496
X12446Y64008
X23368Y26670
X15748Y26670
X19050Y83820
X21590Y83820
X24130Y83820
X12446Y61468
X12446Y58928
X30226Y66548
T5
X39751Y16510
X37211Y16510
X19558Y16510
X22098Y16510
X17018Y16510
X24638Y16510
X27178Y16510
X11938Y16510
X31601Y53419
X31601Y50879
X31601Y48339
X31601Y45799
X31601Y55959
X31601Y58499
X35560Y37338
X31601Y61039
X31601Y43259
X9122Y84328
X12622Y84328
X60960Y37338
X27940Y29718
X58420Y22098
X60960Y22098
X55880Y22098
X27940Y32258
X27940Y34798
X27940Y27178
X27940Y24638
X27940Y22098
X27940Y37338
X58420Y37338
X55880Y37338
X53340Y37338
X50800Y37338
X48260Y37338
X45720Y37338
X43180Y37338
X40640Y37338
X38100Y37338
X14478Y16510
X33020Y37338
X30480Y37338
X58420Y24638
X30480Y22098
X33020Y22098
X35560Y22098
X38100Y22098
X40640Y22098
X43180Y22098
X45720Y22098
X48260Y22098
X50800Y22098
X53340Y22098
X31750Y24511
X31750Y27114
X31750Y29718
X31750Y32321
X31750Y34925
X36195Y24511
X36195Y27114
X36195Y29718
X36195Y32321
X36195Y34925
X60960Y28818
X60200Y30618
X52451Y16510
X49911Y16510
X47371Y16510
X44831Y16510
X42291Y16510
T6
X58420Y73406
X60960Y79502
X50800Y71882
X8890Y66802
X8890Y76962
X50800Y82042
X5080Y66802
X5080Y76962
X60960Y67564
X18288Y70358
X20828Y70358
X18288Y76962
X20828Y76962
X46736Y71882
X60960Y73406
X58420Y67564
X46736Y82042
X58420Y79502
T7
X4064Y36068
X4064Y46228
X4064Y43688
X4064Y48768
X4064Y51308
X4064Y53848
X4064Y41148
X4064Y38608
T8
X13030Y24689
X13030Y21260
X25832Y47549
X27889Y48235
X7209Y44550
X22860Y63551
X38633Y42291
X57022Y16360
X57058Y31534
X34747Y31547
X33376Y33833
X34290Y50063
X24003Y70180
X36119Y19888
M30