G04 EAGLE Gerber RS-274X export*
G75*
%MOMM*%
%FSLAX34Y34*%
%LPD*%
%INSoldermask Top*%
%IPPOS*%
%AMOC8*
5,1,8,0,0,1.08239X$1,22.5*%
G01*
%ADD10P,4.343848X8X22.500000*%
%ADD11P,1.649562X8X22.500000*%
%ADD12C,1.879600*%
%ADD13C,3.505200*%
%ADD14C,2.387600*%
%ADD15C,1.727200*%
%ADD16P,2.034460X8X292.500000*%
%ADD17R,1.600000X1.400000*%
%ADD18P,2.034460X8X112.500000*%
%ADD19C,1.727200*%
%ADD20P,2.556822X8X202.500000*%
%ADD21R,1.711200X1.711200*%
%ADD22C,1.981200*%
%ADD23P,1.852186X8X292.500000*%
%ADD24C,1.711200*%
%ADD25C,2.133600*%
%ADD26C,1.981200*%
%ADD27P,1.869504X8X292.500000*%
%ADD28P,2.144431X8X202.500000*%
%ADD29C,0.959600*%


D10*
X388620Y855980D03*
X325120Y855980D03*
D11*
X584200Y734060D03*
X609600Y734060D03*
X584200Y675640D03*
X609600Y675640D03*
D12*
X259842Y777240D02*
X243078Y777240D01*
X243078Y751840D02*
X259842Y751840D01*
X259842Y726440D02*
X243078Y726440D01*
D13*
X401320Y751840D03*
D14*
X91220Y843280D03*
X126220Y843280D03*
D15*
X190500Y845820D02*
X190500Y830580D01*
X215900Y830580D02*
X215900Y845820D01*
X241300Y845820D02*
X241300Y830580D01*
D16*
X50800Y769620D03*
X50800Y668020D03*
D17*
X50800Y729074D03*
X50800Y708566D03*
D16*
X88900Y769620D03*
X88900Y668020D03*
D17*
X88900Y729074D03*
X88900Y708566D03*
D18*
X508000Y718820D03*
X508000Y820420D03*
D17*
X508000Y759366D03*
X508000Y779874D03*
D11*
X584200Y795020D03*
X609600Y795020D03*
D19*
X27940Y264160D03*
X27940Y289560D03*
X27940Y314960D03*
X55880Y264160D03*
X55880Y289560D03*
X55880Y314960D03*
X83820Y264160D03*
X83820Y289560D03*
X83820Y314960D03*
X111760Y264160D03*
X111760Y289560D03*
X111760Y314960D03*
D20*
X233680Y266700D03*
X157480Y266700D03*
D21*
X609600Y373380D03*
X279400Y297180D03*
X584200Y220980D03*
D22*
X609600Y220980D03*
D23*
X558800Y220980D03*
D24*
X279400Y322580D03*
X279400Y347980D03*
X279400Y271780D03*
X279400Y246380D03*
X279400Y220980D03*
X279400Y373380D03*
X584200Y373380D03*
X558800Y373380D03*
X533400Y373380D03*
X508000Y373380D03*
X482600Y373380D03*
X457200Y373380D03*
X431800Y373380D03*
X406400Y373380D03*
X381000Y373380D03*
X355600Y373380D03*
X330200Y373380D03*
X304800Y373380D03*
X584200Y246380D03*
X304800Y220980D03*
X330200Y220980D03*
X355600Y220980D03*
X381000Y220980D03*
X406400Y220980D03*
X431800Y220980D03*
X457200Y220980D03*
X482600Y220980D03*
X508000Y220980D03*
X533400Y220980D03*
X317500Y245110D03*
X317500Y271145D03*
X317500Y297180D03*
X317500Y323215D03*
X317500Y349250D03*
X361950Y245110D03*
X361950Y271145D03*
X361950Y297180D03*
X361950Y323215D03*
X361950Y349250D03*
X609600Y288180D03*
X602000Y306180D03*
D25*
X524510Y165100D03*
X499110Y165100D03*
X473710Y165100D03*
X448310Y165100D03*
X422910Y165100D03*
X397510Y165100D03*
X372110Y165100D03*
X195580Y165100D03*
X220980Y165100D03*
X170180Y165100D03*
X144780Y165100D03*
X246380Y165100D03*
X271780Y165100D03*
X119380Y165100D03*
D26*
X49530Y462280D02*
X31750Y462280D01*
X31750Y436880D02*
X49530Y436880D01*
X49530Y487680D02*
X31750Y487680D01*
X31750Y513080D02*
X49530Y513080D01*
X49530Y538480D02*
X31750Y538480D01*
X31750Y411480D02*
X49530Y411480D01*
X49530Y386080D02*
X31750Y386080D01*
X31750Y360680D02*
X49530Y360680D01*
D27*
X403860Y665480D03*
X378460Y665480D03*
X353060Y665480D03*
X327660Y665480D03*
X302260Y665480D03*
X276860Y665480D03*
D19*
X124460Y589280D03*
X124460Y614680D03*
X124460Y640080D03*
D28*
X182880Y703580D03*
D22*
X208280Y703580D03*
D28*
X182880Y769620D03*
D22*
X208280Y769620D03*
D18*
X467360Y718820D03*
X467360Y820420D03*
D17*
X467360Y759366D03*
X467360Y779874D03*
D25*
X316010Y534190D03*
X316010Y508790D03*
X316010Y483390D03*
X316010Y457990D03*
X316010Y559590D03*
X316010Y584990D03*
X316010Y610390D03*
X316010Y432590D03*
D29*
X361188Y198882D03*
X130302Y246888D03*
X130302Y212598D03*
X258318Y475488D03*
X278892Y482346D03*
X72094Y445498D03*
X228600Y635508D03*
X386334Y422910D03*
X570220Y163600D03*
X570580Y315340D03*
X347472Y315468D03*
X333756Y338328D03*
X342900Y500634D03*
X240030Y701802D03*
M02*
